{
  "accessors": [
    {
      "bufferView": 2,
      "componentType": 5126,
      "count": 3276,
      "max": [
        1.0,
        1.0,
        1.0
      ],
      "min": [
        -1.0,
        -1.0,
        -1.1946914196014404
      ],
      "type": "VEC3"
    },
    {
      "bufferView": 2,
      "byteOffset": 39312,
      "componentType": 5126,
      "count": 3276,
      "type": "VEC3"
    },
    {
      "bufferView": 1,
      "componentType": 5126,
      "count": 3276,
      "type": "VEC2"
    },
    {
      "bufferView": 1,
      "byteOffset": 26208,
      "componentType": 5126,
      "count": 3276,
      "type": "VEC2"
    },
    {
      "bufferView": 1,
      "byteOffset": 52416,
      "componentType": 5126,
      "count": 3276,
      "type": "VEC2"
    },
    {
      "bufferView": 0,
      "componentType": 5125,
      "count": 11166,
      "type": "SCALAR"
    },
    {
      "bufferView": 2,
      "byteOffset": 78624,
      "componentType": 5126,
      "count": 10421,
      "max": [
        1.2021262645721436,
        9.018077850341797,
        0.9273558259010315
      ],
      "min": [
        -1.42283034324646,
        -1.1200001239776611,
        -0.9273555278778076
      ],
      "type": "VEC3"
    },
    {
      "bufferView": 2,
      "byteOffset": 203676,
      "componentType": 5126,
      "count": 10421,
      "type": "VEC3"
    },
    {
      "bufferView": 3,
      "componentType": 5126,
      "count": 10421,
      "type": "VEC4"
    },
    {
      "bufferView": 1,
      "byteOffset": 78624,
      "componentType": 5126,
      "count": 10421,
      "type": "VEC2"
    },
    {
      "bufferView": 0,
      "byteOffset": 44664,
      "componentType": 5125,
      "count": 55101,
      "type": "SCALAR"
    },
    {
      "bufferView": 2,
      "byteOffset": 328728,
      "componentType": 5126,
      "count": 1128,
      "max": [
        0.6583161354064941,
        14.280314445495605,
        0.11606073379516602
      ],
      "min": [
        -1.7558157444000244,
        5.4983978271484375,
        -0.11606759577989578
      ],
      "type": "VEC3"
    },
    {
      "bufferView": 2,
      "byteOffset": 342264,
      "componentType": 5126,
      "count": 1128,
      "type": "VEC3"
    },
    {
      "bufferView": 1,
      "byteOffset": 161992,
      "componentType": 5126,
      "count": 1128,
      "type": "VEC2"
    },
    {
      "bufferView": 0,
      "byteOffset": 265068,
      "componentType": 5125,
      "count": 3360,
      "type": "SCALAR"
    },
    {
      "bufferView": 2,
      "byteOffset": 355800,
      "componentType": 5126,
      "count": 2187,
      "max": [
        0.2990110516548157,
        12.662908554077148,
        0.17152032256126404
      ],
      "min": [
        -1.3242157697677612,
        6.026519298553467,
        -0.1715274155139923
      ],
      "type": "VEC3"
    },
    {
      "bufferView": 2,
      "byteOffset": 382044,
      "componentType": 5126,
      "count": 2187,
      "type": "VEC3"
    },
    {
      "bufferView": 1,
      "byteOffset": 171016,
      "componentType": 5126,
      "count": 2187,
      "type": "VEC2"
    },
    {
      "bufferView": 0,
      "byteOffset": 278508,
      "componentType": 5125,
      "count": 6330,
      "type": "SCALAR"
    },
    {
      "bufferView": 2,
      "byteOffset": 408288,
      "componentType": 5126,
      "count": 14750,
      "max": [
        0.7014055848121643,
        4.088602542877197,
        0.5919203758239746
      ],
      "min": [
        -0.719434380531311,
        0.6358251571655273,
        -0.5919374227523804
      ],
      "type": "VEC3"
    },
    {
      "bufferView": 2,
      "byteOffset": 585288,
      "componentType": 5126,
      "count": 14750,
      "type": "VEC3"
    },
    {
      "bufferView": 1,
      "byteOffset": 188512,
      "componentType": 5126,
      "count": 14750,
      "type": "VEC2"
    },
    {
      "bufferView": 0,
      "byteOffset": 303828,
      "componentType": 5125,
      "count": 83370,
      "type": "SCALAR"
    },
    {
      "bufferView": 2,
      "byteOffset": 762288,
      "componentType": 5126,
      "count": 9442,
      "max": [
        1.0822087526321411,
        6.154224395751953,
        1.1109802722930908
      ],
      "min": [
        -1.647200584411621,
        3.0441970825195313,
        -1.1109797954559326
      ],
      "type": "VEC3"
    },
    {
      "bufferView": 2,
      "byteOffset": 875592,
      "componentType": 5126,
      "count": 9442,
      "type": "VEC3"
    },
    {
      "bufferView": 3,
      "byteOffset": 166736,
      "componentType": 5126,
      "count": 9442,
      "type": "VEC4"
    },
    {
      "bufferView": 1,
      "byteOffset": 306512,
      "componentType": 5126,
      "count": 9442,
      "type": "VEC2"
    },
    {
      "bufferView": 1,
      "byteOffset": 382048,
      "componentType": 5126,
      "count": 9442,
      "type": "VEC2"
    },
    {
      "bufferView": 0,
      "byteOffset": 637308,
      "componentType": 5125,
      "count": 54912,
      "type": "SCALAR"
    },
    {
      "bufferView": 2,
      "byteOffset": 988896,
      "componentType": 5126,
      "count": 1508,
      "max": [
        0.0661567747592926,
        8.175537109375,
        0.3571595847606659
      ],
      "min": [
        -0.9120822548866272,
        5.3126044273376465,
        -0.35811179876327515
      ],
      "type": "VEC3"
    },
    {
      "bufferView": 2,
      "byteOffset": 1006992,
      "componentType": 5126,
      "count": 1508,
      "type": "VEC3"
    },
    {
      "bufferView": 1,
      "byteOffset": 457584,
      "componentType": 5126,
      "count": 1508,
      "type": "VEC2"
    },
    {
      "bufferView": 0,
      "byteOffset": 856956,
      "componentType": 5125,
      "count": 4563,
      "type": "SCALAR"
    },
    {
      "bufferView": 5,
      "componentType": 5126,
      "count": 500,
      "max": [
        10.416666984558105
      ],
      "min": [
        0.0
      ],
      "type": "SCALAR"
    },
    {
      "bufferView": 4,
      "componentType": 5126,
      "count": 500,
      "type": "VEC4"
    }
  ],
  "animations": [
    {
      "channels": [
        {
          "sampler": 0,
          "target": {
            "node": 8,
            "path": "rotation"
          }
        }
      ],
      "name": "Dagger|DaggerAction",
      "samplers": [
        {
          "input": 33,
          "interpolation": "LINEAR",
          "output": 34
        }
      ]
    }
  ],
  "asset": {
    "generator": "fab-model-conversion",
    "version": "2.0"
  },
  "bufferViews": [
    {
      "buffer": 0,
      "byteLength": 875208,
      "target": 34963
    },
    {
      "buffer": 0,
      "byteLength": 469648,
      "byteOffset": 875208,
      "byteStride": 8,
      "target": 34962
    },
    {
      "buffer": 0,
      "byteLength": 1025088,
      "byteOffset": 1344856,
      "byteStride": 12,
      "target": 34962
    },
    {
      "buffer": 0,
      "byteLength": 317808,
      "byteOffset": 2369944,
      "byteStride": 16,
      "target": 34962
    },
    {
      "buffer": 0,
      "byteLength": 8000,
      "byteOffset": 2687752
    },
    {
      "buffer": 0,
      "byteLength": 2000,
      "byteOffset": 2695752
    }
  ],
  "buffers": [
    {
      "byteLength": 2697752,
      "uri": "scene.bin"
    }
  ],
  "extensionsUsed": [
    "KHR_materials_emissive_strength",
    "KHR_materials_specular",
    "KHR_materials_clearcoat"
  ],
  "images": [
    {
      "uri": "textures/Background_baseColor.png"
    },
    {
      "uri": "textures/Background_metallicRoughness.png"
    },
    {
      "uri": "textures/Background_emissive.png"
    },
    {
      "uri": "textures/BottomGold_normal.jpeg"
    },
    {
      "uri": "textures/Cloth_baseColor.jpeg"
    },
    {
      "uri": "textures/Cloth_normal.png"
    }
  ],
  "materials": [
    {
      "doubleSided": true,
      "emissiveFactor": [
        1.0,
        1.0,
        1.0
      ],
      "emissiveTexture": {
        "index": 2
      },
      "extensions": {
        "KHR_materials_emissive_strength": {
          "emissiveStrength": 1.25
        },
        "KHR_materials_specular": {
          "specularColorFactor": [
            1.0,
            1.0,
            1.0
          ],
          "specularFactor": 1.0
        }
      },
      "name": "Background",
      "occlusionTexture": {
        "index": 1
      },
      "pbrMetallicRoughness": {
        "baseColorTexture": {
          "index": 0
        },
        "metallicFactor": 0.262,
        "metallicRoughnessTexture": {
          "index": 1
        }
      }
    },
    {
      "doubleSided": true,
      "extensions": {
        "KHR_materials_clearcoat": {
          "clearcoatFactor": 1.0,
          "clearcoatRoughnessFactor": 0.04
        }
      },
      "name": "BottomGold",
      "normalTexture": {
        "index": 3
      },
      "pbrMetallicRoughness": {
        "baseColorFactor": [
          0.8,
          0.399354,
          0.159245,
          1.0
        ],
        "metallicFactor": 0.7,
        "roughnessFactor": 0.2
      }
    },
    {
      "alphaMode": "BLEND",
      "doubleSided": true,
      "emissiveFactor": [
        0.14449910290932913,
        0.48810812096275796,
        0.813405782309545
      ],
      "extensions": {
        "KHR_materials_emissive_strength": {
          "emissiveStrength": 1.2
        }
      },
      "name": "Blade",
      "pbrMetallicRoughness": {
        "baseColorFactor": [
          0.035218,
          0.035218,
          0.035218,
          0.65
        ],
        "metallicFactor": 0.0,
        "roughnessFactor": 0.9901092462265755
      }
    },
    {
      "doubleSided": true,
      "emissiveFactor": [
        0.04366934889631635,
        0.19078690988379196,
        0.34431558169915194
      ],
      "name": "Blade2",
      "pbrMetallicRoughness": {
        "baseColorFactor": [
          0.035218,
          0.035218,
          0.035218,
          1.0
        ],
        "metallicFactor": 0.0,
        "roughnessFactor": 0.9901092462265755
      }
    },
    {
      "doubleSided": true,
      "name": "Handle",
      "pbrMetallicRoughness": {
        "baseColorFactor": [
          0.001522170556876567,
          0.3101815916302112,
          0.2615589601412212,
          1.0
        ],
        "metallicFactor": 0.7444257479496429,
        "roughnessFactor": 0.30209480541233935
      }
    },
    {
      "doubleSided": true,
      "name": "Cloth",
      "normalTexture": {
        "index": 5
      },
      "pbrMetallicRoughness": {
        "baseColorTexture": {
          "index": 4
        },
        "metallicFactor": 0.45,
        "roughnessFactor": 0.7
      }
    },
    {
      "doubleSided": true,
      "name": "TopGold",
      "pbrMetallicRoughness": {
        "baseColorFactor": [
          0.8,
          0.399354,
          0.159245,
          1.0
        ],
        "metallicFactor": 0.7,
        "roughnessFactor": 0.2
      }
    }
  ],
  "meshes": [
    {
      "name": "Background_Background_0",
      "primitives": [
        {
          "attributes": {
            "NORMAL": 1,
            "POSITION": 0,
            "TEXCOORD_0": 2,
            "TEXCOORD_1": 3,
            "TEXCOORD_2": 4
          },
          "indices": 5,
          "material": 0,
          "mode": 4
        }
      ]
    },
    {
      "name": "Dagger_BottomGold_0",
      "primitives": [
        {
          "attributes": {
            "NORMAL": 7,
            "POSITION": 6,
            "TANGENT": 8,
            "TEXCOORD_0": 9
          },
          "indices": 10,
          "material": 1,
          "mode": 4
        }
      ]
    },
    {
      "name": "Dagger_Blade_0",
      "primitives": [
        {
          "attributes": {
            "NORMAL": 12,
            "POSITION": 11,
            "TEXCOORD_0": 13
          },
          "indices": 14,
          "material": 2,
          "mode": 4
        }
      ]
    },
    {
      "name": "Dagger_Blade2_0",
      "primitives": [
        {
          "attributes": {
            "NORMAL": 16,
            "POSITION": 15,
            "TEXCOORD_0": 17
          },
          "indices": 18,
          "material": 3,
          "mode": 4
        }
      ]
    },
    {
      "name": "Dagger_Handle_0",
      "primitives": [
        {
          "attributes": {
            "NORMAL": 20,
            "POSITION": 19,
            "TEXCOORD_0": 21
          },
          "indices": 22,
          "material": 4,
          "mode": 4
        }
      ]
    },
    {
      "name": "Dagger_Cloth_0",
      "primitives": [
        {
          "attributes": {
            "NORMAL": 24,
            "POSITION": 23,
            "TANGENT": 25,
            "TEXCOORD_0": 26,
            "TEXCOORD_1": 27
          },
          "indices": 28,
          "material": 5,
          "mode": 4
        }
      ]
    },
    {
      "name": "Dagger_TopGold_0",
      "primitives": [
        {
          "attributes": {
            "NORMAL": 30,
            "POSITION": 29,
            "TEXCOORD_0": 31
          },
          "indices": 32,
          "material": 6,
          "mode": 4
        }
      ]
    }
  ],
  "nodes": [
    {
      "children": [
        1
      ],
      "matrix": [
        1.0,
        0.0,
        0.0,
        0.0,
        0.0,
        2.220446049250313e-16,
        -1.0,
        0.0,
        0.0,
        1.0,
        2.220446049250313e-16,
        0.0,
        0.0,
        0.0,
        0.0,
        1.0
      ],
      "name": "Sketchfab_model"
    },
    {
      "children": [
        2
      ],
      "matrix": [
        0.009999999776482582,
        0.0,
        0.0,
        0.0,
        0.0,
        0.0,
        0.009999999776482582,
        0.0,
        0.0,
        -0.009999999776482582,
        0.0,
        0.0,
        0.0,
        0.0,
        0.0,
        1.0
      ],
      "name": "Dagger Showcase.fbx"
    },
    {
      "children": [
        3
      ],
      "name": "Object_2"
    },
    {
      "children": [
        4,
        6,
        8,
        15
      ],
      "name": "RootNode",
      "rotation": [
        0.0,
        0.0,
        0.0,
        1.0
      ],
      "scale": [
        1.0,
        1.0,
        1.0
      ],
      "translation": [
        0.0,
        0.0,
        0.0
      ]
    },
    {
      "children": [
        5
      ],
      "name": "Camera",
      "rotation": [
        0.05374472588300705,
        0.9673238396644592,
        -0.013742762617766857,
        -0.2474009245634079
      ],
      "scale": [
        100.0,
        99.99999237060547,
        100.00000762939453
      ],
      "translation": [
        347.9947204589844,
        -57.14039611816406,
        -194.13197326660156
      ]
    },
    {
      "name": "Object_5"
    },
    {
      "children": [
        7
      ],
      "name": "Background",
      "rotation": [
        -0.7071068286895752,
        0.0,
        0.0,
        0.7071067094802856
      ],
      "scale": [
        550.0,
        550.0,
        550.0
      ],
      "translation": [
        -3.725290298461914e-07,
        477.0409240722656,
        0.0
      ]
    },
    {
      "mesh": 0,
      "name": "Background_Background_0"
    },
    {
      "children": [
        9,
        10,
        11,
        12,
        13,
        14
      ],
      "name": "Dagger",
      "rotation": [
        -2.6692545063156103e-08,
        -0.7071067690849304,
        -2.6692543286799264e-08,
        0.7071068286895752
      ],
      "scale": [
        6.803999900817871,
        6.803998947143555,
        7.559998989105225
      ],
      "translation": [
        5.020099639892578,
        -47.16554641723633,
        -0.8673930764198303
      ]
    },
    {
      "mesh": 1,
      "name": "Dagger_BottomGold_0"
    },
    {
      "mesh": 2,
      "name": "Dagger_Blade_0"
    },
    {
      "mesh": 3,
      "name": "Dagger_Blade2_0"
    },
    {
      "mesh": 4,
      "name": "Dagger_Handle_0"
    },
    {
      "mesh": 5,
      "name": "Dagger_Cloth_0"
    },
    {
      "mesh": 6,
      "name": "Dagger_TopGold_0"
    },
    {
      "children": [
        16
      ],
      "name": "Spot",
      "rotation": [
        -3.561755690384416e-08,
        1.2504917989986097e-08,
        -0.33126533031463623,
        0.9435376524925232
      ],
      "scale": [
        100.0,
        100.0,
        100.0
      ],
      "translation": [
        64.1143569946289,
        74.30876159667969,
        0.0
      ]
    },
    {
      "children": [
        17
      ],
      "matrix": [
        1.0,
        0.0,
        0.0,
        0.0,
        0.0,
        2.220446049250313e-16,
        1.0,
        0.0,
        0.0,
        -1.0,
        2.220446049250313e-16,
        0.0,
        0.0,
        0.0,
        0.0,
        1.0
      ],
      "name": "Object_16"
    },
    {
      "name": "Object_17"
    }
  ],
  "samplers": [
    {
      "magFilter": 9729,
      "minFilter": 9987,
      "wrapS": 10497,
      "wrapT": 10497
    }
  ],
  "scene": 0,
  "scenes": [
    {
      "name": "Sketchfab_Scene",
      "nodes": [
        0
      ]
    }
  ],
  "textures": [
    {
      "sampler": 0,
      "source": 0
    },
    {
      "sampler": 0,
      "source": 1
    },
    {
      "sampler": 0,
      "source": 2
    },
    {
      "sampler": 0,
      "source": 3
    },
    {
      "sampler": 0,
      "source": 4
    },
    {
      "sampler": 0,
      "source": 5
    }
  ]
}
